HIERARCHY
ROOT Hips
{
  OFFSET 5.84602e-005 68.8428 3.50346
  CHANNELS 6 Xposition Yposition Zposition Zrotation Xrotation Yrotation
  JOINT Spine
  {
    OFFSET 0 8.597 -4.6522
    CHANNELS 3 Zrotation Xrotation Yrotation
    JOINT Spine1
    {
      OFFSET 0 7.8454 0.4098
      CHANNELS 3 Zrotation Xrotation Yrotation
      JOINT Spine2
      {
        OFFSET 0 9.7078 -2.1609
        CHANNELS 3 Zrotation Xrotation Yrotation
        JOINT Neck
        {
          OFFSET 0 21.8761 -0.4549
          CHANNELS 3 Zrotation Xrotation Yrotation
          JOINT Head
          {
            OFFSET 0 12.3537 3.3602
            CHANNELS 3 Zrotation Xrotation Yrotation
            End Site
            {
              OFFSET 0.0001 18.9506 0.5657
            }
          }
        }
        JOINT LeftShoulder
        {
          OFFSET 2.2086 21.1115 7.2329
          CHANNELS 3 Zrotation Xrotation Yrotation
          JOINT LeftArm
          {
            OFFSET 13.1193 3.0282 -4.8998
            CHANNELS 3 Zrotation Xrotation Yrotation
            JOINT LeftForeArm
            {
              OFFSET 27.4081 -0.0973053 -0.2375
              CHANNELS 3 Zrotation Xrotation Yrotation
              JOINT LeftHand
              {
                OFFSET 22.8641 0.0662994 -0.1369
                CHANNELS 3 Zrotation Xrotation Yrotation
                JOINT LeftHandIndex1
                {
                  OFFSET 8.8614 0.775009 2.4612
                  CHANNELS 3 Zrotation Xrotation Yrotation
                  JOINT LeftHandIndex2
                  {
                    OFFSET 3.3146 -0.808304 0.5841
                    CHANNELS 3 Zrotation Xrotation Yrotation
                    JOINT LeftHandIndex3
                    {
                      OFFSET 2.2628 -0.552002 0.3989
                      CHANNELS 3 Zrotation Xrotation Yrotation
                      End Site
                      {
                        OFFSET 1.6102 -0.4807 0.2612
                      }
                    }
                  }
                }
                JOINT LeftHandMiddle1
                {
                  OFFSET 8.9937 0.895004 0.2143
                  CHANNELS 3 Zrotation Xrotation Yrotation
                  JOINT LeftHandMiddle2
                  {
                    OFFSET 4.0984 0.0113983 -0.0242
                    CHANNELS 3 Zrotation Xrotation Yrotation
                    JOINT LeftHandMiddle3
                    {
                      OFFSET 2.2716 0.00689697 -0.0138001
                      CHANNELS 3 Zrotation Xrotation Yrotation
                      End Site
                      {
                        OFFSET 2.0404 -0.1441 0.0027
                      }
                    }
                  }
                }
                JOINT LeftHandRing1
                {
                  OFFSET 8.5234 0.597198 -2.0164
                  CHANNELS 3 Zrotation Xrotation Yrotation
                  JOINT LeftHandRing2
                  {
                    OFFSET 3.7188 -0.188293 -0.2328
                    CHANNELS 3 Zrotation Xrotation Yrotation
                    JOINT LeftHandRing3
                    {
                      OFFSET 2.1191 -0.106598 -0.1332
                      CHANNELS 3 Zrotation Xrotation Yrotation
                      End Site
                      {
                        OFFSET 1.8737 -0.2304 -0.0886
                      }
                    }
                  }
                }
                JOINT LeftHandPinky1
                {
                  OFFSET 7.9094 -0.601089 -3.4825
                  CHANNELS 3 Zrotation Xrotation Yrotation
                  JOINT LeftHandPinky2
                  {
                    OFFSET 2.2874 -0.477005 -0.6314
                    CHANNELS 3 Zrotation Xrotation Yrotation
                    JOINT LeftHandPinky3
                    {
                      OFFSET 1.6774 -0.349396 -0.4633
                      CHANNELS 3 Zrotation Xrotation Yrotation
                      End Site
                      {
                        OFFSET 1.4888 -0.4091 -0.3416
                      }
                    }
                  }
                }
                JOINT LeftHandThumb1
                {
                  OFFSET 1.833 -1.3875 1.3896
                  CHANNELS 3 Zrotation Xrotation Yrotation
                  JOINT LeftHandThumb2
                  {
                    OFFSET 3.4129 -1.121 2.5732
                    CHANNELS 3 Zrotation Xrotation Yrotation
                    JOINT LeftHandThumb3
                    {
                      OFFSET 2.2474 -0.804199 1.6192
                      CHANNELS 3 Zrotation Xrotation Yrotation
                      End Site
                      {
                        OFFSET 1.6527 -0.5689 1.1317
                      }
                    }
                  }
                }
              }
            }
          }
        }
        JOINT RightShoulder
        {
          OFFSET -2.2086 21.1115 7.2329
          CHANNELS 3 Zrotation Xrotation Yrotation
          JOINT RightArm
          {
            OFFSET -13.1216 3.0287 -4.9007
            CHANNELS 3 Zrotation Xrotation Yrotation
            JOINT RightForeArm
            {
              OFFSET -27.4081 -0.0973053 -0.2375
              CHANNELS 3 Zrotation Xrotation Yrotation
              JOINT RightHand
              {
                OFFSET -22.8641 0.0664063 -0.1369
                CHANNELS 3 Zrotation Xrotation Yrotation
                JOINT RightHandIndex1
                {
                  OFFSET -8.8614 0.774994 2.4612
                  CHANNELS 3 Zrotation Xrotation Yrotation
                  JOINT RightHandIndex2
                  {
                    OFFSET -3.3146 -0.808304 0.5841
                    CHANNELS 3 Zrotation Xrotation Yrotation
                    JOINT RightHandIndex3
                    {
                      OFFSET -2.2628 -0.552002 0.3989
                      CHANNELS 3 Zrotation Xrotation Yrotation
                      End Site
                      {
                        OFFSET -1.6102 -0.4807 0.2612
                      }
                    }
                  }
                }
                JOINT RightHandMiddle1
                {
                  OFFSET -8.9937 0.894989 0.2143
                  CHANNELS 3 Zrotation Xrotation Yrotation
                  JOINT RightHandMiddle2
                  {
                    OFFSET -4.0984 0.0113983 -0.0242
                    CHANNELS 3 Zrotation Xrotation Yrotation
                    JOINT RightHandMiddle3
                    {
                      OFFSET -2.2716 0.00691223 -0.0138001
                      CHANNELS 3 Zrotation Xrotation Yrotation
                      End Site
                      {
                        OFFSET -2.0404 -0.1441 0.0027
                      }
                    }
                  }
                }
                JOINT RightHandRing1
                {
                  OFFSET -8.5234 0.597198 -2.0164
                  CHANNELS 3 Zrotation Xrotation Yrotation
                  JOINT RightHandRing2
                  {
                    OFFSET -3.7188 -0.188309 -0.2328
                    CHANNELS 3 Zrotation Xrotation Yrotation
                    JOINT RightHandRing3
                    {
                      OFFSET -2.1191 -0.106598 -0.1332
                      CHANNELS 3 Zrotation Xrotation Yrotation
                      End Site
                      {
                        OFFSET -1.8737 -0.2304 -0.0886
                      }
                    }
                  }
                }
                JOINT RightHandPinky1
                {
                  OFFSET -7.9094 -0.601105 -3.4825
                  CHANNELS 3 Zrotation Xrotation Yrotation
                  JOINT RightHandPinky2
                  {
                    OFFSET -2.2874 -0.477005 -0.6314
                    CHANNELS 3 Zrotation Xrotation Yrotation
                    JOINT RightHandPinky3
                    {
                      OFFSET -1.6774 -0.349396 -0.4633
                      CHANNELS 3 Zrotation Xrotation Yrotation
                      End Site
                      {
                        OFFSET -1.4888 -0.4091 -0.3416
                      }
                    }
                  }
                }
                JOINT RightHandThumb1
                {
                  OFFSET -1.833 -1.38751 1.3896
                  CHANNELS 3 Zrotation Xrotation Yrotation
                  JOINT RightHandThumb2
                  {
                    OFFSET -3.41299 -1.12099 2.5732
                    CHANNELS 3 Zrotation Xrotation Yrotation
                    JOINT RightHandThumb3
                    {
                      OFFSET -2.24741 -0.804108 1.6192
                      CHANNELS 3 Zrotation Xrotation Yrotation
                      End Site
                      {
                        OFFSET -1.6527 -0.5689 1.1317
                      }
                    }
                  }
                }
              }
            }
          }
        }
      }
    }
  }
  JOINT RightUpLeg
  {
    OFFSET -9.1966 3.8861 -0.7581
    CHANNELS 3 Zrotation Xrotation Yrotation
    JOINT RightLeg
    {
      OFFSET -0.7359 -41.0265 0
      CHANNELS 3 Zrotation Xrotation Yrotation
      JOINT RightFoot
      {
        OFFSET 0 -40.2855 0
        CHANNELS 3 Zrotation Xrotation Yrotation
        JOINT RightToeBase
        {
          OFFSET 0 -5.6122 11.7359
          CHANNELS 3 Zrotation Xrotation Yrotation
          End Site
          {
            OFFSET 0 0 7.8731
          }
        }
      }
    }
  }
  JOINT LeftUpLeg
  {
    OFFSET 9.1965 3.8864 -0.7581
    CHANNELS 3 Zrotation Xrotation Yrotation
    JOINT LeftLeg
    {
      OFFSET 0.7359 -41.0268 0
      CHANNELS 3 Zrotation Xrotation Yrotation
      JOINT LeftFoot
      {
        OFFSET 0 -40.2855 0
        CHANNELS 3 Zrotation Xrotation Yrotation
        JOINT LeftToeBase
        {
          OFFSET 0 -5.6122 11.7359
          CHANNELS 3 Zrotation Xrotation Yrotation
          End Site
          {
            OFFSET 0 0 7.8731
          }
        }
      }
    }
  }
}
MOTION
Frames:	4
Frame Time:	0.0333333
5.84602e-005 68.8428 3.50346 0 0 -0 0 0 -0 0 0 -0 0 0 -0 0 0 -0 0 0 -0 0 0 -0 0 0 -0 0 0 -0 0 0 -0 0 0 -0 0 0 -0 0 0 -0 0 0 -0 -0.0146107 -8.87603e-005 -2.63497e-007 2.99804e-018 -2.42657e-020 -1.42182e-022 0 0 -0 -0.0187562 -0.001176 5.858e-005 5.06224e-018 3.88251e-019 1.21329e-020 0 0 -0 -0.012269 -0.00324817 0.000675346 -1.74678e-018 3.88251e-019 -0 0 0 -0 0 0 -0 0 0 -0 0 0 -0 0 0 -0 0 0 -0 0 0 -0 0 0 -0 0 0 -0 0 0 -0 0 0 -0 0.0149955 -9.10982e-005 2.64101e-007 -9.69331e-018 1.21329e-020 -4.7394e-023 0 0 -0 0.0189956 -0.00119102 -5.96516e-005 -5.41541e-019 0 2.42657e-020 0 0 -0 0.0122698 -0.00324857 -0.000673756 -2.00796e-019 0 -1.94126e-019 0 0 -0 0 0 -0 0 0 -0 3.39842 1.33031 -0.0637918 -5.65207e-008 0.834868 -0.000436188 -3.39935 -2.16518 -0.0642563 -8.89002e-024 -1.18485e-023 -1.48106e-024 -3.39844 1.35642 0.0640283 -3.18788e-007 0.782166 -0.000588827 3.39931 -2.13858 0.0634662 1.1399e-023 0 -0 
-5.65313 25.6048 1.42956 0.0515834 24.0028 -178.25 -1.6499 1.26157 -1.27559 -3.27252 2.55906 -2.51525 -3.27252 2.55906 -2.51525 1.84933e-005 -3.81237e-006 1.75687e-005 -7.74172e-007 -7.44437e-008 5.52576e-007 -25.6393 -7.43892 -3.9502 -12.9699 -20.3749 -29.6909 -32.2464 22.6777 -69.3964 -35.145 -27.5849 31.0255 3.03471e-007 -1.79624e-007 -2.39456e-007 -3.03471e-007 1.79624e-007 2.39456e-007 3.03471e-007 -1.79624e-007 -2.39456e-007 3.03471e-007 -1.79624e-007 -2.39456e-007 -0.0146209 -9.77226e-005 -5.2397e-007 3.03474e-007 -1.79593e-007 -2.39479e-007 3.03471e-007 -1.79624e-007 -2.39456e-007 -0.0187578 -0.00116793 4.93117e-005 3.03473e-007 -1.79584e-007 -2.39488e-007 3.03471e-007 -1.79624e-007 -2.39456e-007 -0.0123082 -0.00325028 0.000677009 3.03466e-007 -1.79599e-007 -2.39484e-007 3.03471e-007 -1.79624e-007 -2.39456e-007 -3.03471e-007 1.79624e-007 2.39456e-007 3.03471e-007 -1.79624e-007 -2.39456e-007 17.273 -8.20597 0.902737 16.3288 -14.8781 47.3328 23.973 20.4422 80.8955 23.8724 -34.6085 2.04042 1.49341e-006 5.24131e-007 -5.84886e-007 1.49341e-006 5.24131e-007 -5.84886e-007 1.49341e-006 5.24131e-007 -5.84886e-007 1.49341e-006 5.24131e-007 -5.84886e-007 0.0149931 -9.18886e-005 -9.2033e-008 1.49345e-006 5.24054e-007 -5.84956e-007 1.49341e-006 5.24131e-007 -5.84886e-007 0.0189725 -0.0011901 -5.82635e-005 1.49345e-006 5.24032e-007 -5.84988e-007 1.49341e-006 5.24131e-007 -5.84886e-007 0.0122931 -0.00324773 -0.000674507 1.49342e-006 5.24069e-007 -5.84986e-007 1.49341e-006 5.24131e-007 -5.84886e-007 1.49341e-006 5.24131e-007 -5.84886e-007 1.49341e-006 5.24131e-007 -5.84886e-007 -12.3593 24.5749 3.7596 149.031 83.3798 -107.652 6.45795 47.1304 -43.7984 -3.18055e-015 -6.36111e-015 -1.59028e-015 114.203 -48.1361 82.2847 176.007 62.3807 137.488 14.5521 13.6324 25.5126 5.8071e-007 8.64793e-009 -3.35039e-006 
-5.65208 25.5368 1.44274 0.053468 25.0541 -178.246 -1.61901 1.79189 -1.28523 -3.19977 3.61894 -2.52115 -3.19976 3.61895 -2.52114 -0.201198 -0.115404 -0.152272 7.84678e-008 -0.308048 1.70851e-006 -24.865 -8.51026 -5.112 -12.9699 -20.3749 -29.6909 -31.8729 21.8158 -67.9566 -36.0453 -27.4359 29.344 6.06057e-007 -3.5977e-007 -4.79743e-007 1.21211e-006 -7.1954e-007 -9.59486e-007 1.21211e-006 -7.1954e-007 -9.59486e-007 6.06057e-007 -3.5977e-007 -4.79743e-007 -0.0146267 -9.44843e-005 2.04424e-006 1.21212e-006 -7.19418e-007 -9.59579e-007 6.06057e-007 -3.5977e-007 -4.79743e-007 -0.0187857 -0.00118198 6.07488e-005 1.21212e-006 -7.19383e-007 -9.59617e-007 6.06057e-007 -3.5977e-007 -4.79743e-007 -0.012289 -0.0032493 0.000675189 1.21209e-006 -7.19442e-007 -9.59598e-007 6.06057e-007 -3.5977e-007 -4.79743e-007 1.21211e-006 -7.1954e-007 -9.59486e-007 1.21211e-006 -7.1954e-007 -9.59486e-007 16.7071 -9.81959 1.73399 16.3288 -14.8781 47.3328 23.9168 20.1448 80.2505 24.0473 -34.8737 2.52536 -0 -3.18055e-015 -0 -1.58901e-030 -9.54166e-015 -9.54166e-015 3.53113e-031 -3.18055e-015 6.36111e-015 -0 -3.18055e-015 -0 0.0150519 -9.10578e-005 -7.29709e-007 -4.88723e-007 3.63206e-006 1.33759e-006 -0 -3.18055e-015 -0 0.0190116 -0.00118972 -6.51665e-005 -4.88379e-007 3.63201e-006 1.33746e-006 -0 -3.18055e-015 -0 0.0121981 -0.00323173 -0.000669297 -3.18055e-015 -9.54166e-015 6.36111e-015 -0 -3.18055e-015 -0 -1.58901e-030 -9.54166e-015 -9.54166e-015 3.53113e-031 -3.18055e-015 6.36111e-015 -12.5449 25.482 3.97397 150.28 83.1848 -108.911 6.45982 47.1281 -43.8048 -3.38148e-008 -3.02205e-006 -1.79705e-006 113.67 -47.8659 81.7596 176.027 62.2649 137.504 13.4711 16.0619 25.9338 -6.70108e-007 1.34607e-006 -3.71244e-006 
-5.65105 25.4706 1.45792 0.0552951 26.1069 -178.243 -1.58715 2.32694 -1.29483 -3.12515 4.68836 -2.52776 -3.12516 4.68836 -2.52776 -0.402769 -0.230383 -0.30497 -1.43265e-006 -0.616248 6.48025e-007 -24.1078 -9.60094 -6.26663 -12.9699 -20.3749 -29.6909 -31.4768 20.9592 -66.5133 -36.9414 -27.2631 27.663 3.02615e-007 -1.8012e-007 -2.40267e-007 3.02615e-007 -1.8012e-007 -2.40267e-007 1.81569e-006 -1.08072e-006 -1.4416e-006 3.02615e-007 -1.8012e-007 -2.40267e-007 -0.0146264 -8.75419e-005 -3.41951e-006 1.8157e-006 -1.08054e-006 -1.44174e-006 3.02615e-007 -1.8012e-007 -2.40267e-007 -0.0187335 -0.00116739 5.69261e-005 1.81569e-006 -1.08049e-006 -1.44179e-006 3.02615e-007 -1.8012e-007 -2.40267e-007 -0.0122599 -0.00324115 0.00067545 1.81566e-006 -1.08057e-006 -1.44177e-006 3.02615e-007 -1.8012e-007 -2.40267e-007 3.02615e-007 -1.8012e-007 -2.40267e-007 1.81569e-006 -1.08072e-006 -1.4416e-006 16.1598 -11.4488 2.55728 16.3288 -14.8781 47.3328 23.8569 19.8478 79.6061 24.2255 -35.1377 3.01297 2.98275e-006 1.05834e-006 -1.17207e-006 2.98275e-006 1.05834e-006 -1.17207e-006 1.49137e-006 5.2917e-007 -5.86033e-007 2.98275e-006 1.05834e-006 -1.17207e-006 0.015027 -9.13762e-005 -5.66176e-006 1.49141e-006 5.29093e-007 -5.86104e-007 2.98275e-006 1.05834e-006 -1.17207e-006 0.0189937 -0.00119239 -5.96835e-005 1.49141e-006 5.2907e-007 -5.86137e-007 2.98275e-006 1.05834e-006 -1.17207e-006 0.0122919 -0.0032561 -0.000677599 1.49138e-006 5.29108e-007 -5.86134e-007 2.98275e-006 1.05834e-006 -1.17207e-006 2.98275e-006 1.05834e-006 -1.17207e-006 1.49137e-006 5.2917e-007 -5.86033e-007 -12.7361 26.3892 4.19353 151.459 82.9867 -110.102 6.46174 47.1258 -43.8111 -1.00189e-006 -3.42188e-006 3.75051e-007 113.153 -47.5948 81.2482 176.048 62.1447 137.521 12.3485 18.5032 26.4138 -2.60676e-006 2.63032e-006 -7.97448e-007 
